<?xml version="1.0" encoding="UTF-8" standalone="no"?>
<svg
   version="1.1"
   viewBox="-5.0 -10.0 110.0 135.0"
   id="svg3"
   sodipodi:docname="caf44bc0-37a0-4ca9-baa3-a7fe4f7522a5.svg"
   xmlns:inkscape="http://www.inkscape.org/namespaces/inkscape"
   xmlns:sodipodi="http://sodipodi.sourceforge.net/DTD/sodipodi-0.dtd"
   xmlns="http://www.w3.org/2000/svg"
   xmlns:svg="http://www.w3.org/2000/svg">
  <defs
     id="defs3" />
  <sodipodi:namedview
     id="namedview3"
     pagecolor="#ffffff"
     bordercolor="#000000"
     borderopacity="0.25"
     inkscape:showpageshadow="2"
     inkscape:pageopacity="0.0"
     inkscape:pagecheckerboard="0"
     inkscape:deskcolor="#d1d1d1" />
  <g
     id="g2">
    <path
       d="m71.859 22.355c-0.18359 0.039062-0.37109-0.003907-0.51953-0.11719-13.879-10.695-33.699-9.4062-46.105 2.9961-12.406 12.406-13.691 32.227-2.9961 46.105 0.11328 0.14844 0.15625 0.33984 0.11719 0.51953-0.3125 1.4219 0.019531 2.8789 0.89062 4.0078l52.621-52.621c-1.1289-0.87109-2.5859-1.2031-4.0078-0.89062zm-48.715 45.676c0 0.34766-0.28125 0.62891-0.62891 0.62891s-0.62891-0.28125-0.62891-0.62891v-2.7852c0-0.34766 0.28125-0.62891 0.62891-0.62891s0.62891 0.28125 0.62891 0.62891zm1.3359-34.832c-4.6875 7.1016-6.1836 15.934-4.1094 24.23 0.085937 0.33984-0.12109 0.67969-0.45703 0.76172-0.050781 0.011719-0.10156 0.019532-0.15234 0.019532-0.28125 0-0.53906-0.19141-0.60938-0.47656-2.1602-8.6367-0.60156-17.832 4.2812-25.227 0.19141-0.28906 0.58203-0.37109 0.87109-0.17969 0.28906 0.1875 0.36719 0.57812 0.17578 0.87109zm1.5 37.668c0 0.34766-0.28125 0.62891-0.62891 0.62891-0.34766 0-0.62891-0.28125-0.62891-0.62891v-2.7891c0-0.34766 0.28125-0.62891 0.62891-0.62891 0.34766 0 0.62891 0.28125 0.62891 0.62891zm0.31641-5.9883c0 0.34766-0.28125 0.62891-0.62891 0.62891-0.34766 0-0.62891-0.28125-0.62891-0.62891v-2.7852c0-0.34766 0.28125-0.62891 0.62891-0.62891 0.34766 0 0.62891 0.28125 0.62891 0.62891zm0.12891-34.656c-0.14453 0-0.29297-0.050781-0.41016-0.15234-0.26172-0.22656-0.28906-0.625-0.0625-0.88672 0.49609-0.57031 1.0195-1.1328 1.5586-1.6758 1.0898-1.0898 2.2578-2.1016 3.4805-3.0156 0.27734-0.20703 0.67187-0.14844 0.87891 0.12891 0.20703 0.27734 0.15234 0.67188-0.12891 0.87891-1.1719 0.875-2.2969 1.8516-3.3438 2.8945-0.51953 0.51953-1.0234 1.0586-1.4961 1.6094-0.125 0.14453-0.30078 0.21875-0.47656 0.21875zm2.707 37.492c0 0.34766-0.28125 0.62891-0.62891 0.62891s-0.62891-0.28125-0.62891-0.62891v-2.7852c0-0.34766 0.28125-0.62891 0.62891-0.62891s0.62891 0.28125 0.62891 0.62891zm0.31641-5.9883c0 0.34766-0.28125 0.62891-0.62891 0.62891-0.34766 0-0.62891-0.28125-0.62891-0.62891l-0.003906-2.7852c0-0.34766 0.28125-0.62891 0.62891-0.62891s0.62891 0.28125 0.62891 0.62891zm2.8359 2.8359c0 0.34766-0.28125 0.62891-0.62891 0.62891s-0.62891-0.28125-0.62891-0.62891v-2.7852c0-0.34766 0.28125-0.62891 0.62891-0.62891s0.62891 0.28125 0.62891 0.62891zm0.31641-5.9883c0 0.34766-0.28125 0.62891-0.62891 0.62891s-0.62891-0.28125-0.62891-0.62891v-2.7852c0-0.34766 0.28125-0.62891 0.62891-0.62891s0.62891 0.28125 0.62891 0.62891zm2.8359 2.8359c0 0.34766-0.28125 0.62891-0.62891 0.62891s-0.62891-0.28125-0.62891-0.62891v-2.7852c0-0.34766 0.28125-0.62891 0.62891-0.62891s0.62891 0.28125 0.62891 0.62891zm0.3125-5.9844c0 0.34766-0.28125 0.62891-0.62891 0.62891s-0.62891-0.28125-0.62891-0.62891v-2.7852c0-0.34766 0.28125-0.62891 0.62891-0.62891s0.62891 0.28125 0.62891 0.62891zm2.8398 2.8359c0 0.34766-0.28125 0.62891-0.62891 0.62891-0.34766 0-0.62891-0.28125-0.62891-0.62891v-2.7852c0-0.34766 0.28125-0.62891 0.62891-0.62891 0.34766 0 0.62891 0.28125 0.62891 0.62891zm0.3125-5.9883c0 0.34766-0.28125 0.62891-0.62891 0.62891-0.34766 0-0.62891-0.28125-0.62891-0.62891v-2.7852c0-0.34766 0.28125-0.62891 0.62891-0.62891 0.34766 0 0.62891 0.28125 0.62891 0.62891zm2.8359 2.8359c0 0.34766-0.28125 0.62891-0.62891 0.62891s-0.62891-0.28125-0.62891-0.62891v-2.7852c0-0.34766 0.28125-0.62891 0.62891-0.62891s0.62891 0.28125 0.62891 0.62891zm0.31641-5.9883c0 0.34766-0.28125 0.62891-0.62891 0.62891-0.34766 0-0.62891-0.28125-0.62891-0.62891v-2.7852c0-0.34766 0.28125-0.62891 0.62891-0.62891 0.34766 0 0.62891 0.28125 0.62891 0.62891zm2.8359 2.8359c0 0.34766-0.28125 0.62891-0.62891 0.62891-0.34766 0-0.62891-0.28125-0.62891-0.62891v-2.7852c0-0.34766 0.28125-0.62891 0.62891-0.62891 0.34766 0 0.62891 0.28125 0.62891 0.62891zm0.31641-5.9883c0 0.34766-0.28125 0.62891-0.62891 0.62891s-0.62891-0.28125-0.62891-0.62891v-2.7852c0-0.34766 0.28125-0.62891 0.62891-0.62891s0.62891 0.28125 0.62891 0.62891zm2.8359 2.8359c0 0.34766-0.28125 0.62891-0.62891 0.62891-0.34766 0-0.62891-0.28125-0.62891-0.62891l-0.003906-2.7852c0-0.34766 0.28125-0.62891 0.62891-0.62891s0.62891 0.28125 0.62891 0.62891zm0.3125-5.9883c0 0.34766-0.28125 0.62891-0.62891 0.62891-0.34766 0-0.62891-0.28125-0.62891-0.62891v-2.7852c0-0.34766 0.28125-0.62891 0.62891-0.62891 0.34766 0 0.62891 0.28125 0.62891 0.62891zm2.8398 2.8359c0 0.34766-0.28125 0.62891-0.62891 0.62891s-0.62891-0.28125-0.62891-0.62891v-2.7852c0-0.34766 0.28125-0.62891 0.62891-0.62891s0.62891 0.28125 0.62891 0.62891zm0.3125-5.9883c0 0.34766-0.28125 0.62891-0.62891 0.62891s-0.62891-0.28125-0.62891-0.62891l-0.003906-2.7852c0-0.34766 0.28125-0.62891 0.62891-0.62891s0.62891 0.28125 0.62891 0.62891zm2.8398 2.8398c0 0.34766-0.28125 0.62891-0.62891 0.62891s-0.62891-0.28125-0.62891-0.62891v-2.7852c0-0.34766 0.28125-0.62891 0.62891-0.62891s0.62891 0.28125 0.62891 0.62891zm0.3125-5.9883c0 0.34766-0.28125 0.62891-0.62891 0.62891s-0.62891-0.28125-0.62891-0.62891v-2.7852c0-0.34766 0.28125-0.62891 0.62891-0.62891s0.62891 0.28125 0.62891 0.62891zm2.8359 2.8359c0 0.34766-0.28125 0.62891-0.62891 0.62891-0.34766 0-0.62891-0.28125-0.62891-0.62891v-2.7852c0-0.34766 0.28125-0.62891 0.62891-0.62891 0.34766 0 0.62891 0.28125 0.62891 0.62891zm0.31641-5.9883c0 0.34766-0.28125 0.62891-0.62891 0.62891s-0.62891-0.28125-0.62891-0.62891v-2.7852c0-0.34766 0.28125-0.62891 0.62891-0.62891s0.62891 0.28125 0.62891 0.62891zm2.8359 2.8359c0 0.34766-0.28125 0.62891-0.62891 0.62891-0.34766 0-0.62891-0.28125-0.62891-0.62891v-2.7852c0-0.34766 0.28125-0.62891 0.62891-0.62891 0.34766 0 0.62891 0.28125 0.62891 0.62891zm0.31641-5.9883c0 0.34766-0.28125 0.62891-0.62891 0.62891-0.34766 0-0.62891-0.28125-0.62891-0.62891v-2.7852c0-0.34766 0.28125-0.62891 0.62891-0.62891 0.34766 0 0.62891 0.28125 0.62891 0.62891zm2.8359 2.8359c0 0.34766-0.28125 0.62891-0.62891 0.62891s-0.62891-0.28125-0.62891-0.62891v-2.7852c0-0.34766 0.28125-0.62891 0.62891-0.62891s0.62891 0.28125 0.62891 0.62891zm0.3125-5.9883c0 0.34766-0.28125 0.62891-0.62891 0.62891s-0.62891-0.28125-0.62891-0.62891v-2.7852c0-0.34766 0.28125-0.62891 0.62891-0.62891s0.62891 0.28125 0.62891 0.62891zm2.8359 2.8359c0 0.34766-0.28125 0.62891-0.62891 0.62891-0.34766 0-0.62891-0.28125-0.62891-0.62891v-2.7852c0-0.34766 0.28125-0.62891 0.62891-0.62891 0.34766 0 0.62891 0.28125 0.62891 0.62891zm0.31641-5.9883c0 0.34766-0.28125 0.62891-0.62891 0.62891-0.34766 0-0.62891-0.28125-0.62891-0.62891v-2.7852c0-0.34766 0.28125-0.62891 0.62891-0.62891 0.34766 0 0.62891 0.28125 0.62891 0.62891zm2.8359 2.8398c0 0.34766-0.28125 0.62891-0.62891 0.62891s-0.62891-0.28125-0.62891-0.62891v-2.7852c0-0.34766 0.28125-0.62891 0.62891-0.62891s0.62891 0.28125 0.62891 0.62891z"
       id="path1" />
    <path
       d="m77.645 28.141c0.3125-1.4219-0.019531-2.8789-0.89062-4.0078l-52.621 52.625c1.1289 0.87109 2.5859 1.2031 4.0078 0.89063 0.042969-0.011719 0.089844-0.015626 0.13281-0.015626 0.13672 0 0.27344 0.046876 0.38281 0.12891 13.879 10.695 33.699 9.4062 46.105-2.9961 12.41-12.406 13.695-32.227 3-46.105-0.11328-0.14844-0.15625-0.33984-0.11719-0.51953zm-4.3867 1.7578h2.7812c0.34766 0 0.62891 0.28125 0.62891 0.62891s-0.28125 0.62891-0.62891 0.62891h-2.7852c-0.34766 0-0.62891-0.28125-0.62891-0.62891s0.28125-0.62891 0.63281-0.62891zm-3.1523 3.1523h2.7852c0.34766 0 0.62891 0.28125 0.62891 0.62891 0 0.34766-0.28125 0.62891-0.62891 0.62891h-2.7852c-0.34766 0-0.62891-0.28125-0.62891-0.62891-0.003906-0.34766 0.28125-0.62891 0.62891-0.62891zm-0.31641 7.2461c-0.34766 0-0.62891-0.28125-0.62891-0.62891 0-0.34766 0.28125-0.62891 0.62891-0.62891h2.7852c0.34766 0 0.62891 0.28125 0.62891 0.62891 0 0.34766-0.28125 0.62891-0.62891 0.62891zm0.26172 2.5195c0 0.34766-0.28125 0.62891-0.62891 0.62891h-2.7852c-0.34766 0-0.62891-0.28125-0.62891-0.62891s0.28125-0.62891 0.62891-0.62891h2.7852c0.34766 0 0.62891 0.28125 0.62891 0.62891zm2.8906-5.6719c-0.34766 0-0.62891-0.28125-0.62891-0.62891s0.28125-0.62891 0.62891-0.62891h2.7852c0.34766 0 0.62891 0.28125 0.62891 0.62891s-0.28125 0.62891-0.62891 0.62891zm-5.9883-0.94531h2.7852c0.34766 0 0.62891 0.28125 0.62891 0.62891s-0.28125 0.62891-0.62891 0.62891h-2.7852c-0.34766 0-0.62891-0.28125-0.62891-0.62891-0.003907-0.34766 0.28125-0.62891 0.62891-0.62891zm-3.1523 3.1523h2.7852c0.34766 0 0.62891 0.28125 0.62891 0.62891 0 0.34766-0.28125 0.62891-0.62891 0.62891l-2.7852 0.003906c-0.34766 0-0.62891-0.28125-0.62891-0.62891 0-0.35156 0.28125-0.63281 0.62891-0.63281zm-3.1523 3.1523h2.7852c0.34766 0 0.62891 0.28125 0.62891 0.62891 0 0.34766-0.28125 0.62891-0.62891 0.62891h-2.7852c-0.34766 0-0.62891-0.28125-0.62891-0.62891 0-0.34766 0.28125-0.62891 0.62891-0.62891zm-3.1523 3.1523h2.7852c0.34766 0 0.62891 0.28125 0.62891 0.62891s-0.28125 0.62891-0.62891 0.62891h-2.7852c-0.34766 0-0.62891-0.28125-0.62891-0.62891s0.28125-0.62891 0.62891-0.62891zm-3.1484 3.1484h2.7852c0.34766 0 0.62891 0.28125 0.62891 0.62891s-0.28125 0.62891-0.62891 0.62891h-2.7852c-0.34766 0-0.62891-0.28125-0.62891-0.62891-0.003906-0.34375 0.27734-0.62891 0.62891-0.62891zm-3.1523 3.1523h2.7852c0.34766 0 0.62891 0.28125 0.62891 0.62891 0 0.34766-0.28125 0.62891-0.62891 0.62891h-2.7852c-0.34766 0-0.62891-0.28125-0.62891-0.62891 0-0.34766 0.28125-0.62891 0.62891-0.62891zm-3.1523 3.1523h2.7852c0.34766 0 0.62891 0.28125 0.62891 0.62891 0 0.34766-0.28125 0.62891-0.62891 0.62891h-2.7852c-0.34766 0-0.62891-0.28125-0.62891-0.62891 0-0.34766 0.28125-0.62891 0.62891-0.62891zm-3.1523 3.1523h2.7852c0.34766 0 0.62891 0.28125 0.62891 0.62891s-0.28125 0.62891-0.62891 0.62891h-2.7852c-0.34766 0-0.62891-0.28125-0.62891-0.62891s0.28125-0.62891 0.62891-0.62891zm-3.1523 3.1484h2.7852c0.34766 0 0.62891 0.28125 0.62891 0.62891 0 0.34766-0.28125 0.62891-0.62891 0.62891l-2.7852 0.003906c-0.34766 0-0.62891-0.28125-0.62891-0.62891 0-0.34766 0.28125-0.63281 0.62891-0.63281zm-3.1484 3.1523h2.7852c0.34766 0 0.62891 0.28125 0.62891 0.62891s-0.28125 0.62891-0.62891 0.62891h-2.7852c-0.34766 0-0.62891-0.28125-0.62891-0.62891-0.003907-0.34375 0.28125-0.62891 0.62891-0.62891zm-3.1523 3.1523h2.7852c0.34766 0 0.62891 0.28125 0.62891 0.62891s-0.28125 0.62891-0.62891 0.62891h-2.7852c-0.34766 0-0.62891-0.28125-0.62891-0.62891s0.28125-0.62891 0.62891-0.62891zm-3.1523 3.1523h2.7852c0.34766 0 0.62891 0.28125 0.62891 0.62891s-0.28125 0.62891-0.62891 0.62891h-2.7852c-0.34766 0-0.62891-0.28125-0.62891-0.62891s0.28125-0.62891 0.62891-0.62891zm-3.7773 3.7812c0-0.34766 0.28125-0.62891 0.62891-0.62891h2.7852c0.34766 0 0.62891 0.28125 0.62891 0.62891 0 0.34766-0.28125 0.62891-0.62891 0.62891h-2.7852c-0.35156 0-0.62891-0.28125-0.62891-0.62891zm6.25 3.4648h-2.7852c-0.34766 0-0.62891-0.28125-0.62891-0.62891s0.28125-0.62891 0.62891-0.62891h2.7852c0.34766 0 0.62891 0.28125 0.62891 0.62891s-0.28125 0.62891-0.62891 0.62891zm3.1484-3.1523h-2.7852c-0.34766 0-0.62891-0.28125-0.62891-0.62891 0-0.34766 0.28125-0.62891 0.62891-0.62891h2.7852c0.34766 0 0.62891 0.28125 0.62891 0.62891 0.003906 0.34766-0.28125 0.62891-0.62891 0.62891zm3.1523-3.1523h-2.7852c-0.34766 0-0.62891-0.28125-0.62891-0.62891 0-0.34766 0.28125-0.62891 0.62891-0.62891h2.7852c0.34766 0 0.62891 0.28125 0.62891 0.62891 0 0.34766-0.28125 0.62891-0.62891 0.62891zm3.1523-3.1523h-2.7852c-0.34766 0-0.62891-0.28125-0.62891-0.62891s0.28125-0.62891 0.62891-0.62891h2.7852c0.34766 0 0.62891 0.28125 0.62891 0.62891s-0.28125 0.62891-0.62891 0.62891zm3.1523-3.1484h-2.7852c-0.34766 0-0.62891-0.28125-0.62891-0.62891s0.28125-0.62891 0.62891-0.62891h2.7852c0.34766 0 0.62891 0.28125 0.62891 0.62891s-0.28516 0.62891-0.62891 0.62891zm3.1523-3.1523h-2.7852c-0.34766 0-0.62891-0.28125-0.62891-0.62891 0-0.34766 0.28125-0.62891 0.62891-0.62891h2.7852c0.34766 0 0.62891 0.28125 0.62891 0.62891 0 0.34766-0.28516 0.62891-0.62891 0.62891zm3.1484-3.1523h-2.7852c-0.34766 0-0.62891-0.28125-0.62891-0.62891 0-0.34766 0.28125-0.62891 0.62891-0.62891h2.7852c0.34766 0 0.62891 0.28125 0.62891 0.62891 0.003906 0.34766-0.28125 0.62891-0.62891 0.62891zm3.1523-3.1523h-2.7852c-0.34766 0-0.62891-0.28125-0.62891-0.62891s0.28125-0.62891 0.62891-0.62891h2.7852c0.34766 0 0.62891 0.28125 0.62891 0.62891s-0.28125 0.62891-0.62891 0.62891zm3.1523-3.1484h-2.7852c-0.34766 0-0.62891-0.28125-0.62891-0.62891 0-0.34766 0.28125-0.62891 0.62891-0.62891h2.7852c0.34766 0 0.62891 0.28125 0.62891 0.62891 0 0.34766-0.28516 0.62891-0.62891 0.62891zm3.1523-3.1523h-2.7852c-0.34766 0-0.62891-0.28125-0.62891-0.62891s0.28125-0.62891 0.62891-0.62891l2.7852-0.003907c0.34766 0 0.62891 0.28125 0.62891 0.62891-0.003906 0.35156-0.28516 0.63281-0.62891 0.63281zm0.36328-3.1523c-0.34766 0-0.62891-0.28125-0.62891-0.62891s0.28125-0.62891 0.62891-0.62891h2.7852c0.34766 0 0.62891 0.28125 0.62891 0.62891s-0.28125 0.62891-0.62891 0.62891zm17.691 3.8047c0.34766 0.011718 0.62109 0.30078 0.60938 0.64844-0.26562 8.0938-3.5625 15.707-9.293 21.438-1.5273 1.5273-3.207 2.8984-4.9922 4.0781-0.10547 0.070313-0.22656 0.10547-0.34766 0.10547-0.20312 0-0.40234-0.10156-0.52734-0.28125-0.19141-0.28906-0.11328-0.67969 0.17969-0.87109 1.7148-1.1328 3.3281-2.4492 4.7969-3.9141 5.5039-5.5039 8.6719-12.812 8.9258-20.59 0.011718-0.35156 0.31641-0.61719 0.64844-0.61328zm-1.668-17.039c0 0.34766-0.28125 0.62891-0.62891 0.62891h-2.7852c-0.34766 0-0.62891-0.28125-0.62891-0.62891 0-0.34766 0.28125-0.62891 0.62891-0.62891h2.7852c0.34375 0 0.62891 0.28125 0.62891 0.62891z"
       id="path2" />
  </g>
  <text
     x="0.0"
     y="117.5"
     font-size="5.0"
     font-weight="bold"
     font-family="Arbeit Regular, Helvetica, Arial-Unicode, Arial, Sans-serif"
     fill="#000000"
     id="text2">Created by IMG visuals icons</text>
  <text
     x="0.0"
     y="122.5"
     font-size="5.0"
     font-weight="bold"
     font-family="Arbeit Regular, Helvetica, Arial-Unicode, Arial, Sans-serif"
     fill="#000000"
     id="text3">from Noun Project</text>
</svg>
